<?xml version="1.0" encoding="UTF-8" standalone="no"?>
<!-- Created with Inkscape (http://www.inkscape.org/) -->

<svg
   width="503.98364"
   height="548.62427"
   viewBox="0 0 133.34567 145.15684"
   version="1.1"
   id="svg1"
   inkscape:version="1.3 (0e150ed, 2023-07-21)"
   xml:space="preserve"
   sodipodi:docname="spring_arm_camera_shape.svg"
   xmlns:inkscape="http://www.inkscape.org/namespaces/inkscape"
   xmlns:sodipodi="http://sodipodi.sourceforge.net/DTD/sodipodi-0.dtd"
   xmlns="http://www.w3.org/2000/svg"
   xmlns:svg="http://www.w3.org/2000/svg"><sodipodi:namedview
     id="namedview1"
     pagecolor="#505050"
     bordercolor="#eeeeee"
     borderopacity="1"
     inkscape:showpageshadow="0"
     inkscape:pageopacity="0"
     inkscape:pagecheckerboard="0"
     inkscape:deskcolor="#d1d1d1"
     inkscape:document-units="px"
     showguides="true"
     inkscape:zoom="0.33611111"
     inkscape:cx="360.00001"
     inkscape:cy="434.38017"
     inkscape:window-width="1440"
     inkscape:window-height="783"
     inkscape:window-x="0"
     inkscape:window-y="25"
     inkscape:window-maximized="0"
     inkscape:current-layer="layer1"><sodipodi:guide
       position="6.3915672,-24.158243"
       orientation="0,1"
       id="guide1"
       inkscape:locked="false"
       inkscape:label=""
       inkscape:color="rgb(0,134,229)" /><sodipodi:guide
       position="141.85824,111.30842"
       orientation="-1,0"
       id="guide2"
       inkscape:locked="false"
       inkscape:label=""
       inkscape:color="rgb(0,134,229)" /></sodipodi:namedview><defs
     id="defs1"><marker
       style="overflow:visible"
       id="marker13-6"
       refX="0"
       refY="0"
       orient="auto-start-reverse"
       inkscape:stockid="Triangle arrow"
       markerWidth="1"
       markerHeight="1"
       viewBox="0 0 1 1"
       inkscape:isstock="true"
       inkscape:collect="always"
       preserveAspectRatio="xMidYMid"><path
         transform="scale(0.5)"
         style="fill:context-stroke;fill-rule:evenodd;stroke:context-stroke;stroke-width:1pt"
         d="M 5.77,0 -2.88,5 V -5 Z"
         id="path13-0" /></marker><marker
       style="overflow:visible"
       id="marker13-6-1"
       refX="0"
       refY="0"
       orient="auto-start-reverse"
       inkscape:stockid="Triangle arrow"
       markerWidth="1"
       markerHeight="1"
       viewBox="0 0 1 1"
       inkscape:isstock="true"
       inkscape:collect="always"
       preserveAspectRatio="xMidYMid"><path
         transform="scale(0.5)"
         style="fill:context-stroke;fill-rule:evenodd;stroke:context-stroke;stroke-width:1pt"
         d="M 5.77,0 -2.88,5 V -5 Z"
         id="path13-0-38" /></marker><marker
       style="overflow:visible"
       id="marker13-6-4"
       refX="0"
       refY="0"
       orient="auto-start-reverse"
       inkscape:stockid="Triangle arrow"
       markerWidth="1"
       markerHeight="1"
       viewBox="0 0 1 1"
       inkscape:isstock="true"
       inkscape:collect="always"
       preserveAspectRatio="xMidYMid"><path
         transform="scale(0.5)"
         style="fill:context-stroke;fill-rule:evenodd;stroke:context-stroke;stroke-width:1pt"
         d="M 5.77,0 -2.88,5 V -5 Z"
         id="path13-0-3" /></marker></defs><g
     inkscape:label="Layer 1"
     inkscape:groupmode="layer"
     id="layer1"
     transform="translate(6.3915672,19.889795)"><rect
       style="fill:#4c4c4c;fill-opacity:1;stroke:none;stroke-width:0.79075;stroke-linecap:round;stroke-linejoin:round;stroke-dasharray:2.09219, 4.18438;paint-order:fill markers stroke"
       id="rect1"
       width="133.34567"
       height="145.15683"
       x="-6.3915672"
       y="-19.889795" /><path
       fill="#fc7f7f"
       d="m 80.646636,25.899058 a 7.453588,7.453588 0 0 1 7.453585,6.899539 7.453588,7.453588 0 1 1 7.45359,12.53942 v 5.40633 a 2.4845294,2.4845293 0 0 1 -2.484495,2.48453 h -14.90718 a 2.4845294,2.4845293 0 0 1 -2.48459,-2.48453 v -2.48452 l -7.45359,4.96905 V 38.321699 l 7.45359,4.969063 v -4.397623 a 7.453588,7.453588 0 0 1 4.96909,-12.994081 z"
       id="path1-7"
       style="stroke-width:2.48453" /><g
       id="g2"
       transform="matrix(0.28887309,0,0,0.28887309,19.580744,31.945991)"
       style="stroke-width:1;stroke-dasharray:none"><path
         d="m 113.43931,59.442227 c 0,0 -0.12968,-0.795618 -0.20549,-0.788458 l -14.437069,1.392944 c -1.14876,0.110922 -2.04093,1.027041 -2.12154,2.178192 l -0.39663,5.684661 -11.16894,0.796818 -0.75971,-5.151967 c -0.16918,-1.145964 -1.16988,-2.009809 -2.32823,-2.009809 h -15.23753 c -1.15792,0 -2.15865,0.863845 -2.32784,2.009809 l -0.76013,5.151967 -11.16894,-0.796818 -0.39663,-5.684661 c -0.0806,-1.151538 -0.97279,-2.067668 -2.12154,-2.178615 l -14.44413,-1.392555 c -0.0746,-0.0072 -0.12928,0.789232 -0.2039,0.789232 l -0.0195,3.12427 12.23292,1.9727 0.40062,5.735465 c 0.081,1.16113 1.01787,2.09998 2.17978,2.18337 l 15.38217,1.09728 c 0.0582,0.004 0.11571,0.006 0.17317,0.006 1.15595,0 2.15505,-0.86427 2.32424,-2.0102 l 0.78165,-5.301187 h 11.17424 l 0.78165,5.301187 c 0.16877,1.14558 1.1691,2.00982 2.32664,2.00982 0.0567,0 0.11331,-0.002 0.16878,-0.006 l 15.38429,-1.09728 c 1.16152,-0.0834 2.098779,-1.02227 2.179769,-2.18337 l 0.40019,-5.735465 12.22764,-1.981482 z"
         fill="#ffffff"
         stroke-width="0.352778"
         id="path2"
         style="stroke-width:1;stroke-dasharray:none" /><g
         stroke-width="0.9375"
         id="g5"
         transform="matrix(0.28222223,0,0,0.28222223,27.809561,0.16920859)"
         style="stroke-width:3.54331;stroke-dasharray:none"><path
           d="m 133.04062,7.4975 c -14.39812,3.200906 -28.64156,7.656188 -41.995308,14.3775 0.305391,11.790937 1.067625,23.08875 2.612907,34.564687 -5.185875,3.3225 -10.635938,6.174094 -15.48,10.063125 -4.9215,3.786188 -9.94875,7.409719 -14.404688,11.837813 C 54.87075,72.452094 45.449156,66.918125 35.742281,62.032812 25.278844,73.294062 15.494156,85.44875 7.5019687,99.049063 13.514906,108.77656 19.792594,117.89375 26.570719,126.54594 h 0.188597 V 210.02 c 0.15269,9.4e-4 0.306487,0.008 0.457762,0.0219 l 51.174375,4.93284 c 2.680594,0.25873 4.781063,2.41688 4.967625,5.10319 l 1.578375,22.59 44.639067,3.186 3.07434,-20.85 c 0.39868,-2.70319 2.71856,-4.70578 5.45287,-4.70578 h 53.99063 c 2.73291,0 5.05237,2.00259 5.451,4.70578 l 3.07434,20.85 44.64094,-3.186 1.5765,-22.59 c 0.18804,-2.68622 2.28703,-4.84303 4.96763,-5.10319 l 51.15375,-4.93284 c 0.15127,-0.0142 0.30324,-0.0204 0.45592,-0.0219 v -6.66141 l 0.0219,-0.007 v -76.80562 h 0.18859 c 6.77925,-8.65256 13.05282,-17.77031 19.06875,-27.496876 -7.98946,-13.60125 -17.77875,-25.755938 -28.24218,-37.01625 -9.70407,4.88475 -19.13063,10.418437 -28.03313,16.307812 -4.4549,-4.428094 -9.4725,-8.051531 -14.40093,-11.837812 -4.84238,-3.889407 -10.30032,-6.741 -15.47626,-10.063125 1.54107,-11.475938 2.30429,-22.77375 2.61113,-34.564688 C 225.79766,15.153219 211.55516,10.697656 197.14954,7.4970312 191.39816,17.163594 186.1386,27.629844 181.55797,37.863594 176.1261,36.955916 170.66891,36.619437 165.20516,36.554375 v -0.0073 c -0.0382,0 -0.0737,0.0073 -0.1062,0.0073 -0.0338,0 -0.0704,-0.0073 -0.10437,-0.0073 v 0.0073 c -5.47434,0.065 -10.9275,0.401531 -16.36031,1.309219 -4.57791,-10.232813 -9.83344,-20.7 -15.59344,-30.3665628 z M 26.671875,221.06 c 0.02125,4.9455 0.08423,10.36313 0.08423,11.44219 0,48.59812 61.65,71.95687 138.243745,72.22594 h 0.1886 c 76.59469,-0.26864 138.225,-23.62782 138.225,-72.22594 0,-1.09856 0.0671,-6.49388 0.0897,-11.44219 l -45.9975,4.43663 -1.58569,22.71093 c -0.19087,2.73713 -2.36785,4.91578 -5.10497,5.11228 l -54.51094,3.88913 c -0.1329,0.01 -0.26585,0.0146 -0.39733,0.0146 -2.70891,0 -5.04544,-1.98928 -5.44556,-4.70943 l -3.12563,-21.19782 h -44.47781 l -3.12562,21.19782 c -0.41991,2.85309 -2.97,4.90547 -5.84288,4.69481 l -54.510932,-3.88913 c -2.737125,-0.19651 -4.914094,-2.37515 -5.104969,-5.11228 L 72.689428,225.49663 26.673178,221.06 Z"
           fill="#478cbf"
           id="path3"
           style="stroke-width:3.54331;stroke-dasharray:none" /><path
           d="m 92.552813,129.60687 c -17.025001,0 -30.835313,13.79626 -30.835313,30.82407 0,17.03906 13.809375,30.84187 30.835312,30.84187 17.033438,0 30.839998,-13.80281 30.839998,-30.84187 0,-17.02782 -13.80656,-30.82407 -30.839997,-30.82407 z m 145.087497,0 c -17.03625,0 -30.84187,13.79626 -30.84187,30.82407 0,17.03906 13.80562,30.84187 30.84187,30.84187 17.02406,0 30.83156,-13.80281 30.83156,-30.84187 0,-17.02782 -13.8075,-30.82407 -30.83156,-30.82407 z M 165.09,147.64438 c -5.48278,0 -9.92625,4.04493 -9.92625,9.02156 v 28.39031 c 0,4.98084 4.44337,9.02156 9.92625,9.02156 5.48287,0 9.9375,-4.04072 9.9375,-9.02156 v -28.39031 c 0,-4.97663 -4.45434,-9.02156 -9.9375,-9.02156 z"
           fill="#ffffff"
           id="path4"
           style="stroke-width:3.54331;stroke-dasharray:none" /><path
           d="m 95.503125,141.79437 c -11.305312,0 -20.469375,9.16913 -20.469375,20.47125 0,11.30213 9.164438,20.46188 20.469375,20.46188 11.310935,0 20.471255,-9.15994 20.471255,-20.46188 0,-11.30193 -9.16069,-20.47125 -20.471255,-20.47125 z m 139.181255,0 c -11.30251,0 -20.46001,9.16913 -20.46001,20.47125 0,11.30213 9.15816,20.46188 20.46001,20.46188 11.31375,0 20.46937,-9.15994 20.46937,-20.46188 0,-11.30193 -9.156,-20.47125 -20.46937,-20.47125 z"
           fill="#414042"
           id="path5"
           style="stroke-width:3.54331;stroke-dasharray:none" /></g></g><text
       xml:space="preserve"
       style="font-style:normal;font-variant:normal;font-weight:normal;font-stretch:normal;font-size:6.6146px;line-height:1.25;font-family:'Open Sans';-inkscape-font-specification:'Open Sans';fill:#ffffff;fill-opacity:1;stroke-width:0.132291"
       x="63.005043"
       y="88.957748"
       id="text11-5"><tspan
         sodipodi:role="line"
         id="tspan11-62"
         style="font-style:normal;font-variant:normal;font-weight:normal;font-stretch:normal;font-size:6.6146px;font-family:'Open Sans';-inkscape-font-specification:'Open Sans';fill:#ffffff;fill-opacity:1;stroke-width:0.132291"
         x="63.005043"
         y="88.957748">Camera near plane</tspan></text><text
       xml:space="preserve"
       style="font-style:normal;font-variant:normal;font-weight:normal;font-stretch:normal;font-size:6.6146px;line-height:1.25;font-family:'Open Sans';-inkscape-font-specification:'Open Sans';fill:#ffffff;fill-opacity:1;stroke-width:0.132291"
       x="59.035355"
       y="8.1702738"
       id="text11-5-7"><tspan
         sodipodi:role="line"
         id="tspan11-62-4"
         style="font-style:normal;font-variant:normal;font-weight:normal;font-stretch:normal;font-size:6.6146px;font-family:'Open Sans';-inkscape-font-specification:'Open Sans';fill:#ffffff;fill-opacity:1;stroke-width:0.132291"
         x="59.035355"
         y="8.1702738">Camera position</tspan></text><path
       style="fill:none;stroke:#ff0000;stroke-width:0.66146;stroke-linecap:butt;stroke-linejoin:miter;stroke-dasharray:none;stroke-opacity:1;marker-end:url(#marker13-6)"
       d="M 67.418166,81.518977 57.563426,67.100372"
       id="path12-8"
       sodipodi:nodetypes="cc" /><path
       style="fill:none;stroke:#ff0000;stroke-width:0.66146;stroke-linecap:butt;stroke-linejoin:miter;stroke-dasharray:none;stroke-opacity:1;marker-end:url(#marker13-6-1)"
       d="M 82.306136,12.137241 67.675686,41.999337"
       id="path12-8-4"
       sodipodi:nodetypes="cc" /><text
       xml:space="preserve"
       style="font-style:normal;font-variant:normal;font-weight:normal;font-stretch:normal;font-size:6.6146px;line-height:1.25;font-family:'Open Sans';-inkscape-font-specification:'Open Sans';fill:#ffffff;fill-opacity:1;stroke-width:0.132291"
       x="-1.5067964"
       y="121.29112"
       id="text11-5-0"><tspan
         sodipodi:role="line"
         id="tspan11-62-0"
         style="font-style:normal;font-variant:normal;font-weight:normal;font-stretch:normal;font-size:6.6146px;font-family:'Open Sans';-inkscape-font-specification:'Open Sans';fill:#ffffff;fill-opacity:1;stroke-width:0.132291"
         x="-1.5067964"
         y="121.29112">Camera far plane</tspan></text><path
       style="fill:none;stroke:#ff0000;stroke-width:0.66146;stroke-linecap:butt;stroke-linejoin:miter;stroke-dasharray:none;stroke-opacity:1;marker-end:url(#marker13-6-4)"
       d="m 26.446149,114.00822 -0.21182,-10.24074"
       id="path12-8-9"
       sodipodi:nodetypes="cc" /><path
       style="fill:none;stroke:#ffffff;stroke-width:1.32291;stroke-linecap:round;stroke-linejoin:miter;stroke-dasharray:1.32291, 2.64583;stroke-dashoffset:0;stroke-opacity:1"
       d="M 67.330326,45.156032 55.739486,27.059436 v 37.814286 z"
       id="path19-1"
       sodipodi:nodetypes="cccc" /><path
       style="fill:none;stroke:#ffffff;stroke-width:0.66146;stroke-linecap:butt;stroke-linejoin:miter;stroke-dasharray:none;stroke-opacity:1"
       d="M 55.379816,25.927791 25.824069,-16.632664 26.496199,99.989182 55.648146,65.033332"
       id="path20"
       sodipodi:nodetypes="cccc" /></g></svg>
